<?xml version="1.0" encoding="UTF-8"?>
<svg version="1.1" xmlns="http://www.w3.org/2000/svg" width="600" height="600">
<path d="M0 0 C198 0 396 0 600 0 C600 198 600 396 600 600 C402 600 204 600 0 600 C0 402 0 204 0 0 Z " fill="#EFF2F9" transform="translate(0,0)"/>
<path d="M0 0 C2.89302806 2.46814869 3.95448356 4.92415288 5.26953125 8.4609375 C5.68058105 9.56163574 6.09163086 10.66233398 6.51513672 11.79638672 C7.15733154 13.56780029 7.15733154 13.56780029 7.8125 15.375 C8.47789795 17.19862061 8.47789795 17.19862061 9.15673828 19.05908203 C12.94517199 29.58741967 16.31130442 40.13886106 19 51 C19.31324219 52.22251465 19.31324219 52.22251465 19.6328125 53.46972656 C22.41222209 64.61814952 23.36846112 75.45060608 23.4375 86.9375 C23.44765137 88.12150391 23.45780273 89.30550781 23.46826172 90.52539062 C23.28655184 108.88064781 18.32766709 124.98505788 5.12890625 138.12890625 C-9.79753261 152.18880225 -28.71465875 161.15565068 -47 170 C-47.66386719 170.32226562 -48.32773437 170.64453125 -49.01171875 170.9765625 C-58.63432899 175.63207298 -68.35041069 180.07366078 -78.09179688 184.47338867 C-110.07134994 197.06270229 -110.07134994 197.06270229 -138 216 C-133.07563932 218.59666918 -128.17478744 218.34362355 -122.75 218.3125 C-121.77434082 218.30903564 -120.79868164 218.30557129 -119.79345703 218.30200195 C-110.95578366 218.17133549 -102.6023617 217.01315482 -94 215 C-93.10031494 214.79866455 -92.20062988 214.5973291 -91.27368164 214.38989258 C-83.79939986 212.63779377 -76.7921408 210.20478708 -69.6875 207.3125 C-68.59663086 206.87333252 -67.50576172 206.43416504 -66.38183594 205.98168945 C-59.07646658 202.98835174 -52.18480931 199.61130476 -45.3046875 195.7578125 C-35.10003383 190.32980523 -22.97579002 185.45620048 -11.33984375 188.75390625 C-1.39313774 192.57956241 6.62213439 198.44394556 11.5859375 208.078125 C17.39862475 221.7194604 18.46641495 237.9593594 13.32421875 252.05078125 C1.06744248 279.34832133 -23.33653416 297.18964607 -47.38989258 313.47265625 C-53.16245488 317.38990138 -58.72281461 321.4270336 -64 326 C-64.94875 326.81597656 -65.8975 327.63195312 -66.875 328.47265625 C-78.33229666 338.53020933 -87.53967994 349.65687249 -95 363 C-95.81597656 364.44632812 -95.81597656 364.44632812 -96.6484375 365.921875 C-103.40945621 378.62023502 -106.62951058 391.76327407 -108 406 C-127.24296236 394.73930351 -139.86793149 374.94196446 -146.2578125 353.90625 C-151.75761582 332.37017806 -149.56444982 310.99126806 -140 291 C-141.12277344 290.95101563 -142.24554688 290.90203125 -143.40234375 290.8515625 C-159.04863814 290.10525243 -169.54492541 288.32004813 -180.8359375 276.51171875 C-192.57684007 262.8846423 -201.48034651 248.16991449 -207 231 C-207.29648438 230.16597656 -207.59296875 229.33195313 -207.8984375 228.47265625 C-211.5281133 218.24847046 -212.37297198 208.32384689 -212.37060547 197.54321289 C-212.37495892 195.33335046 -212.41133162 193.12552419 -212.44921875 190.91601562 C-212.55322618 177.95108206 -210.10890914 166.12175714 -204.375 154.375 C-204.03436523 153.66899658 -203.69373047 152.96299316 -203.34277344 152.2355957 C-185.32692569 116.34578919 -145.36714368 98.2876087 -110.25 83.625 C-79.64244838 70.83632309 -51.74287115 56.22831832 -27 34 C-25.91138672 33.03900391 -25.91138672 33.03900391 -24.80078125 32.05859375 C-15.12792948 22.99409744 -6.99384853 11.20931888 0 0 Z " fill="#F1B22E" transform="translate(384,97)"/>
<path d="M0 0 C9.10614588 7.32450865 15.19779262 16.57204833 16.875 28.3125 C18.25933288 48.79770718 13.67429052 64.59187661 0.33984375 80.5625 C-13.60080444 96.11593316 -29.27702467 108.11591765 -46.51489258 119.78515625 C-52.28745488 123.70240138 -57.84781461 127.7395336 -63.125 132.3125 C-64.07375 133.12847656 -65.0225 133.94445312 -66 134.78515625 C-77.45729666 144.84270933 -86.66467994 155.96937249 -94.125 169.3125 C-94.66898437 170.27671875 -95.21296875 171.2409375 -95.7734375 172.234375 C-102.53445621 184.93273502 -105.75451058 198.07577407 -107.125 212.3125 C-126.36796236 201.05180351 -138.99293149 181.25446446 -145.3828125 160.21875 C-150.88261582 138.68267806 -148.68944982 117.30376806 -139.125 97.3125 C-140.80916016 97.23902344 -140.80916016 97.23902344 -142.52734375 97.1640625 C-162.27267966 96.2140469 -162.27267966 96.2140469 -168.125 92.3125 C-172.80830183 78.50908409 -170.97986352 62.69347827 -164.91015625 49.71484375 C-159.94978307 40.64239308 -149.82350124 27.46442037 -140.125 23.3125 C-138.21198647 23.47983704 -136.29706837 23.66383068 -134.40258789 23.9777832 C-120.77707772 25.98020302 -106.44217947 24.42903299 -93.125 21.3125 C-92.22531494 21.11116455 -91.32562988 20.9098291 -90.39868164 20.70239258 C-82.92439986 18.95029377 -75.9171408 16.51728708 -68.8125 13.625 C-67.17619629 12.96624878 -67.17619629 12.96624878 -65.50683594 12.29418945 C-58.20146658 9.30085174 -51.30980931 5.92380476 -44.4296875 2.0703125 C-28.81932832 -6.23307004 -15.7640071 -8.51256383 0 0 Z " fill="#315676" transform="translate(383.125,290.6875)"/>
<path d="M0 0 C1.08539063 -0.01933594 2.17078125 -0.03867187 3.2890625 -0.05859375 C7.08429712 0.55152625 8.73734045 1.66964519 11.375 4.4375 C12.68448632 8.83769937 11.61494826 12.84284561 9.9375 17 C4.84920669 24.54590436 -2.23299799 29.00465123 -10.1484375 33.140625 C-10.97721909 33.57496353 -11.80600067 34.00930206 -12.65989685 34.45680237 C-22.95413203 39.75699957 -33.65135548 44.10063546 -44.36645508 48.46655273 C-64.98959912 56.90218107 -92.73465876 69.438917 -103.21875 90.6640625 C-105.08556056 94.28737209 -106.53364742 96.7580325 -109.625 99.4375 C-118.3070888 101.79805846 -129.15657229 100.08529292 -137.625 97.4375 C-140.625 95.4375 -140.625 95.4375 -141.8125 91.9375 C-144.69334542 76.67148154 -143.04116687 61.19545823 -134.515625 47.9765625 C-121.21578591 30.11520835 -121.21578591 30.11520835 -112.625 26.4375 C-110.71198647 26.60483704 -108.79706837 26.78883068 -106.90258789 27.1027832 C-93.27707772 29.10520302 -78.94217947 27.55403299 -65.625 24.4375 C-64.72531494 24.23616455 -63.82562988 24.0348291 -62.89868164 23.82739258 C-55.42443708 22.07530249 -48.41704074 19.64249173 -41.3125 16.75 C-40.22598145 16.31228271 -39.13946289 15.87456543 -38.02001953 15.42358398 C-30.65463648 12.40389748 -23.62702875 9.06335721 -16.7109375 5.12890625 C-11.08698724 2.04641199 -6.47792402 0.00773022 0 0 Z " fill="#A53950" transform="translate(355.625,287.5625)"/>
<path d="M0 0 C-0.66 0 -1.32 0 -2 0 C-1.50628906 0.54269531 -1.01257813 1.08539063 -0.50390625 1.64453125 C0.13675781 2.35996094 0.77742187 3.07539063 1.4375 3.8125 C2.39462891 4.87404297 2.39462891 4.87404297 3.37109375 5.95703125 C7.07012975 10.59634978 6.52542019 16.36098329 6 22 C2.30991086 36.38080453 -8.48135124 45.25722203 -20.75146484 52.52319336 C-32.44239804 59.23591464 -44.75210434 64.55688843 -57.25 69.5625 C-69.79474467 74.60089154 -81.72314871 80.03387466 -92 89 C-93.24716797 90.06734375 -93.24716797 90.06734375 -94.51953125 91.15625 C-109.57626012 104.33935294 -121.48230545 121.76243523 -123.19091797 142.29418945 C-123.26688424 144.61662242 -123.27783177 146.92652684 -123.25 149.25 C-123.24323242 150.07918945 -123.23646484 150.90837891 -123.22949219 151.76269531 C-123.11468086 158.64870476 -122.45189963 165.25784539 -121 172 C-120.63261719 173.74796875 -120.63261719 173.74796875 -120.2578125 175.53125 C-118.14026812 184.45117148 -114.78303886 192.24260647 -110.70703125 200.41796875 C-109.42459736 203.10902567 -108.62881552 205.16037685 -108 208 C-125.35230802 194.33967241 -135.97572744 173.2057449 -138.71484375 151.42578125 C-140.60690622 128.69511294 -136.35112374 108.17987504 -122 90 C-121.3709375 89.15566406 -120.741875 88.31132812 -120.09375 87.44140625 C-113.24777728 78.44905274 -105.12913134 71.21656225 -95.8125 64.875 C-95.00510376 64.318125 -95.00510376 64.318125 -94.18139648 63.75 C-80.87779554 55.01027065 -65.67057218 49.14706355 -51.06079102 43 C-42.79236714 39.5131819 -34.61137264 35.95787046 -26.67578125 31.7578125 C-26.07535507 31.44175049 -25.47492889 31.12568848 -24.85630798 30.80004883 C-17.87384133 27.01005988 -10.4204454 21.90678831 -8 14 C-7.58674861 10.92710507 -7.26725029 8.02908343 -8 5 C-10.85215866 2.10194453 -13.26924614 1.5743917 -17.25 1.3125 C-18.14203125 1.24675781 -19.0340625 1.18101562 -19.953125 1.11328125 C-20.62859375 1.07589844 -21.3040625 1.03851563 -22 1 C-15.89425141 -3.07049906 -6.43308316 -3.75882226 0 0 Z " fill="#386383" transform="translate(374,287)"/>
<path d="M0 0 C4.4769329 0.84195483 8.80503143 2.03557082 13.18359375 3.28125 C30.03459315 7.58164374 48.2736174 5.4909422 64.95019531 1.45751953 C67.94963165 0.78804077 70.95188627 0.38404616 74 0 C74.495 0.99 74.495 0.99 75 2 C74.15179688 2.44988281 73.30359375 2.89976562 72.4296875 3.36328125 C58.59212953 10.87754525 42.65439832 20.9732822 35.27734375 35.359375 C33.44001461 38.92521652 32.04676483 41.36992507 29 44 C20.29811325 46.33883886 9.48434708 44.65277037 1 42 C-2 40 -2 40 -3.1875 36.5 C-5.54894019 23.98638534 -4.6797012 11.82460213 0 0 Z " fill="#602A48" transform="translate(217,343)"/>
<path d="M0 0 C1.58294782 -0.05437607 3.16644256 -0.09296271 4.75 -0.125 C5.63171875 -0.14820313 6.5134375 -0.17140625 7.421875 -0.1953125 C10.1135858 0.00860498 11.69904974 0.63448279 14 2 C13.34 2 12.68 2 12 2 C12 2.66 12 3.32 12 4 C6.06 2.515 6.06 2.515 0 1 C0 0.67 0 0.34 0 0 Z " fill="#5EA0AB" transform="translate(360,285)"/>
</svg>
