<?xml version="1.0" encoding="UTF-8"?>
<svg version="1.1" xmlns="http://www.w3.org/2000/svg" width="500" height="500">
<path d="M0 0 C165 0 330 0 500 0 C500 165 500 330 500 500 C335 500 170 500 0 500 C0 335 0 170 0 0 Z " fill="#171717" transform="translate(0,0)"/>
<path d="M0 0 C1.62245888 0.0248497 1.62245888 0.0248497 3.2776947 0.05020142 C4.10265945 0.07150116 4.92762421 0.0928009 5.77758789 0.11474609 C5.94120596 18.50822477 6.06459576 36.90151425 6.14027309 55.2955637 C6.17634758 63.83653166 6.22551777 72.37704712 6.30566406 80.91772461 C6.37549735 88.36296852 6.42061018 95.80788468 6.43620735 103.253447 C6.4453231 107.19498235 6.46670084 111.1355802 6.51769829 115.07681465 C6.56534818 118.78955332 6.57984246 122.50097194 6.56934166 126.21398735 C6.57217435 128.22026315 6.60977505 130.22639633 6.64852905 132.2322998 C6.56973874 142.09420013 6.56973874 142.09420013 2.40296936 146.33140564 C1.22227246 147.29426991 0.01513571 148.22613586 -1.22241211 149.11474609 C-2.14666992 149.89462891 -3.07092773 150.67451172 -4.02319336 151.47802734 C-4.85206055 152.12126953 -5.68092773 152.76451172 -6.53491211 153.42724609 C-8.8868205 155.26051006 -11.11384487 157.00617885 -13.22241211 159.11474609 C-13.96491211 159.34162109 -14.70741211 159.56849609 -15.47241211 159.80224609 C-18.24504855 161.12554985 -19.05296458 161.9198768 -20.90991211 164.23974609 C-30.61296006 175.84966798 -30.61296006 175.84966798 -38.21524429 176.83753967 C-43.16698592 177.20248636 -48.11391259 177.10562199 -53.07446289 177.02294922 C-54.97739059 177.02068986 -56.88032524 177.02196469 -58.7832489 177.02648926 C-63.92567275 177.02877621 -69.0665911 176.98188169 -74.20866632 176.9258976 C-79.59108924 176.87574502 -84.97355013 176.87117659 -90.35617065 176.86169434 C-100.5382596 176.8368709 -110.71965795 176.77127809 -120.90144336 176.69089842 C-132.49748742 176.60134932 -144.09356518 176.55746061 -155.68986917 176.51733494 C-179.53443239 176.43380845 -203.37838348 176.29317588 -227.22241211 176.11474609 C-221.76384312 170.62361603 -221.76384312 170.62361603 -218.72631836 168.16943359 C-218.09274414 167.65574219 -217.45916992 167.14205078 -216.80639648 166.61279297 C-216.13930664 166.0771875 -215.4722168 165.54158203 -214.78491211 164.98974609 C-213.72820312 164.13606445 -213.72820312 164.13606445 -212.65014648 163.26513672 C-207.63876659 159.22631573 -202.58624705 155.24179593 -197.51367188 151.28027344 C-193.03922607 147.77831345 -188.62451551 144.20707335 -184.22241211 140.61474609 C-176.39897078 134.23320611 -168.47169146 127.992755 -160.51342773 121.78076172 C-153.00538186 115.91643854 -145.56790258 109.97586138 -138.18603516 103.95336914 C-133.31438918 99.98512148 -128.39684312 96.08112726 -123.44555664 92.21289062 C-119.13334271 88.84125616 -114.86187825 85.42148658 -110.59741211 81.98974609 C-106.2175966 78.46867409 -101.80270269 75.02126699 -97.28491211 71.67724609 C-91.88921652 67.67375538 -86.69539384 63.45760166 -81.50268555 59.19750977 C-76.59264507 55.18586016 -71.59229348 51.31339754 -66.53491211 47.48974609 C-60.83621173 43.17719865 -55.31151976 38.72851061 -49.89355469 34.06958008 C-44.70043629 29.62169893 -39.29633409 25.4762567 -33.84741211 21.34863281 C-31.67279603 19.69741441 -29.50884987 18.03260469 -27.34716797 16.36450195 C-26.2678592 15.53430187 -25.18534623 14.70825017 -24.09960938 13.88647461 C-21.29825367 11.75923067 -18.58337042 9.58157918 -15.93725586 7.26318359 C-15.11354492 6.56708984 -15.11354492 6.56708984 -14.27319336 5.85693359 C-12.75934717 4.57401309 -11.26923562 3.26323358 -9.78100586 1.95068359 C-6.58519156 -0.22585993 -3.80120529 -0.07549404 0 0 Z " fill="#F5F5ED" transform="translate(359.222412109375,229.88525390625)"/>
<path d="M0 0 C3.97817827 0.08175844 7.95650766 0.08894103 11.93539643 0.1043303 C19.45503064 0.14459627 26.97218197 0.2510722 34.49072701 0.38187367 C43.05636758 0.52762825 51.62213236 0.59876712 60.18870604 0.66391432 C77.79680931 0.79947839 95.40260769 1.02785187 113.00880647 1.31812119 C113.06633413 3.40609558 113.10746777 5.49452624 113.14161897 7.58301377 C113.17859895 9.3273948 113.17859895 9.3273948 113.216326 11.10701585 C112.9171905 15.73576376 111.26153441 17.89311535 108.00880647 21.00562119 C106.99198357 22.08652682 105.97636779 23.1685692 104.96193147 24.25171494 C104.45855256 24.76846787 103.95517365 25.2852208 103.43654084 25.81763291 C101.40035432 27.95757859 99.58207161 30.24597051 97.75880647 32.56812119 C97.1181424 33.37507432 96.47747834 34.18202744 95.81740022 35.01343369 C94.14163309 37.14886049 92.47965645 39.29415911 90.82130647 41.44312119 C87.5353995 45.68710581 84.15101099 49.84664172 80.75880647 54.00562119 C74.7518017 61.37398437 68.85820711 68.82437952 63.00880647 76.31812119 C56.70426532 84.39494917 50.33261295 92.40757047 43.85402131 100.34570909 C39.80743462 105.31219334 35.83552523 110.33242117 31.89161897 115.38062119 C28.43940963 119.79177758 24.90152623 124.12678224 21.34083772 128.45093369 C17.66386866 132.97169633 14.07886571 137.56383015 10.48927522 142.15405869 C10.06952424 142.68918077 9.64977326 143.22430284 9.21730256 143.77564073 C8.07797637 145.22983524 6.94361874 146.68791856 5.80958772 148.14624619 C4.00880647 150.31812119 4.00880647 150.31812119 2.00880647 151.69312119 C-0.33888845 153.60062331 -1.39121039 155.73843466 -2.80759978 158.37280869 C-4.57371454 161.27553196 -6.8179134 163.66170198 -9.08884978 166.17749619 C-12.56054523 170.08404466 -15.74489933 174.22424506 -18.99119353 178.31812119 C-19.92017469 179.47884312 -20.84990654 180.63896449 -21.78025603 181.79858994 C-26.71391628 187.94850365 -31.62863102 194.11179367 -36.49119353 200.31812119 C-41.34573371 206.51420942 -46.25172555 212.66779177 -51.17869353 218.80640244 C-52.95925554 221.02545204 -54.73089407 223.2509355 -56.49119353 225.48608994 C-57.21306853 226.40003526 -57.93494353 227.31398057 -58.67869353 228.25562119 C-59.30131072 229.04839463 -59.92392791 229.84116807 -60.56541228 230.65796494 C-61.0359201 231.20581651 -61.50642791 231.75366807 -61.99119353 232.31812119 C-62.32119353 232.31812119 -62.65119353 232.31812119 -62.99119353 232.31812119 C-63.29546773 207.54389507 -63.52440791 182.76995073 -63.66475177 157.99422956 C-63.73166137 146.4891703 -63.82280762 134.98527494 -63.97190642 123.48096299 C-64.10186646 113.44855908 -64.18544024 103.41699835 -64.21434397 93.38377601 C-64.23122943 88.07535123 -64.27063482 82.76933761 -64.36568427 77.46168923 C-64.45461179 72.45484254 -64.48101283 67.45137504 -64.46159339 62.44381356 C-64.46514009 60.6164489 -64.49060468 58.78895921 -64.54086471 56.96228242 C-64.81254221 46.56948296 -63.83805973 39.85695969 -56.68801665 31.96169114 C-55.01028559 30.22621318 -53.30359817 28.53505559 -51.55905765 26.8668862 C-49.28797286 24.62346689 -47.35104406 22.19196799 -45.36619353 19.69312119 C-44.62629683 18.82958528 -43.88640014 17.96604936 -43.12408233 17.07634568 C-40.87484167 14.34374579 -40.87484167 14.34374579 -39.29519439 10.99410081 C-31.31431082 -3.37858575 -14.25457489 -0.34263278 0 0 Z " fill="#F3F3EC" transform="translate(169.99119353294373,150.68187880516052)"/>
<path d="M0 0 C1.82698686 0.01867175 3.65402409 0.0328967 5.4810791 0.0428772 C10.26969792 0.08090117 15.05524079 0.17898163 19.84265137 0.28991699 C24.73582346 0.39256527 29.62949706 0.43796006 34.5234375 0.48828125 C44.11072009 0.59524746 53.69572843 0.76571621 63.28125 0.9765625 C63.4899288 11.56402768 63.64976791 22.15100257 63.74755955 32.74010658 C63.79449995 37.65739275 63.85814459 42.57327058 63.96020508 47.48974609 C64.05811548 52.23609582 64.11183134 56.98109274 64.13514519 61.72837448 C64.15175464 63.53783852 64.18419238 65.34722974 64.23282051 67.15611649 C64.60015282 81.38846087 64.60015282 81.38846087 61.33200073 85.32366943 C58.92944336 86.90380859 58.92944336 86.90380859 56.53648376 87.95516968 C53.9498502 89.1266531 52.76185803 90.44408198 51.03125 92.6640625 C48.72152285 95.56553793 46.5772112 97.20181416 43.28125 98.9765625 C41.9509375 100.059375 41.9509375 100.059375 40.59375 101.1640625 C38.28125 102.9765625 38.28125 102.9765625 36.28125 102.9765625 C35.78625 104.4615625 35.78625 104.4615625 35.28125 105.9765625 C30.01140497 111.54230792 21.51517847 119.73124849 14.015625 121.515625 C13.44328125 121.66773438 12.8709375 121.81984375 12.28125 121.9765625 C11.78625 123.4615625 11.78625 123.4615625 11.28125 124.9765625 C9.54898725 126.58468915 7.7467491 128.11853566 5.90625 129.6015625 C4.92914063 130.39820313 3.95203125 131.19484375 2.9453125 132.015625 C0.28125 133.9765625 0.28125 133.9765625 -2.71875 134.9765625 C-2.71875 112.2065625 -2.71875 89.4365625 -2.71875 65.9765625 C-25.81875 65.9765625 -48.91875 65.9765625 -72.71875 65.9765625 C-69.03345953 61.06284188 -65.39879529 56.29983494 -61.40625 51.6640625 C-57.95254533 47.62437771 -54.55167759 43.55479121 -51.21875 39.4140625 C-48.01266619 35.46943438 -44.67641013 31.69822086 -41.21875 27.9765625 C-32.47332093 18.86389711 -32.47332093 18.86389711 -25.39604187 8.53424072 C-19.18828176 -1.52413117 -10.56661965 -0.31752066 0 0 Z " fill="#E5AA3D" transform="translate(366.71875,84.0234375)"/>
<path d="M0 0 C1.41331052 0.04018125 2.826731 0.07667394 4.24023438 0.109375 C7.68329542 0.19700765 11.12218964 0.33473798 14.5625 0.5 C14.4903125 1.11488281 14.418125 1.72976562 14.34375 2.36328125 C14.2509375 3.17152344 14.158125 3.97976562 14.0625 4.8125 C13.9696875 5.61300781 13.876875 6.41351563 13.78125 7.23828125 C13.40010699 10.99064516 13.40010699 10.99064516 14.5625 14.5 C15.2225 14.5 15.8825 14.5 16.5625 14.5 C16.5625 15.49 16.5625 16.48 16.5625 17.5 C14.5825 17.83 12.6025 18.16 10.5625 18.5 C11.5525 20.975 11.5525 20.975 12.5625 23.5 C11.9025 23.5 11.2425 23.5 10.5625 23.5 C10.5625 24.25925781 10.5625 25.01851562 10.5625 25.80078125 C10.5625 29.70052083 10.5625 33.60026042 10.5625 37.5 C10.81 38.28375 11.0575 39.0675 11.3125 39.875 C11.5625 42.5 11.5625 42.5 9.75 45.25 C7.5625 47.5 7.5625 47.5 5.5625 48.5 C5.8925 49.16 6.2225 49.82 6.5625 50.5 C7.8825 49.51 9.2025 48.52 10.5625 47.5 C13.46182357 49.89509338 14.06418276 51.81245243 14.5625 55.5 C12.5825 57.15 10.6025 58.8 8.5625 60.5 C7.9025 60.17 7.2425 59.84 6.5625 59.5 C5.9025 59.5 5.2425 59.5 4.5625 59.5 C3.9025 60.49 3.2425 61.48 2.5625 62.5 C-0.3734436 62.89872742 -0.3734436 62.89872742 -4.18212891 62.93237305 C-5.22132225 62.94766052 -5.22132225 62.94766052 -6.2815094 62.96325684 C-8.57577484 62.99349691 -10.86962358 63.0026691 -13.1640625 63.01171875 C-14.75305582 63.02855736 -16.34203576 63.04670649 -17.93099976 63.06611633 C-22.1165346 63.11371167 -26.30201519 63.14345906 -30.48773193 63.16955566 C-34.75755534 63.19931335 -39.02719158 63.24586 -43.296875 63.29101562 C-51.6769916 63.37715707 -60.05712505 63.44445378 -68.4375 63.5 C-67.49425699 62.23337694 -66.5497554 60.96769108 -65.60473633 59.70239258 C-65.07890457 58.9974617 -64.55307281 58.29253082 -64.01130676 57.5662384 C-61.81614722 54.68423087 -59.48846305 51.93173358 -57.125 49.1875 C-53.67129533 45.14781521 -50.27042759 41.07822871 -46.9375 36.9375 C-43.29623151 32.45743931 -39.46122948 28.21357918 -35.53222656 23.98901367 C-31.74096613 19.88979647 -28.18847764 15.62917673 -24.703125 11.265625 C-23.58164062 9.89664063 -23.58164062 9.89664063 -22.4375 8.5 C-22.01525146 7.81035156 -21.59300293 7.12070313 -21.15795898 6.41015625 C-15.75931749 -1.42224931 -8.61881802 -0.42646503 0 0 Z " fill="#ECCB47" transform="translate(362.4375,86.5)"/>
<path d="M0 0 C0.83265381 0.00523682 1.66530762 0.01047363 2.52319336 0.01586914 C3.42231445 0.0190918 4.32143555 0.02231445 5.24780273 0.02563477 C6.66609375 0.03820312 6.66609375 0.03820312 8.11303711 0.05102539 C9.06243164 0.05553711 10.01182617 0.06004883 10.98999023 0.06469727 C13.34356776 0.07652429 15.69702188 0.09300514 18.05053711 0.11352539 C18.25923302 10.44021322 18.4190633 20.76639816 18.51684666 31.09476662 C18.56378361 35.89100337 18.62742098 40.68579579 18.72949219 45.48120117 C18.82741635 50.11084504 18.88112104 54.73910173 18.9044323 59.36970139 C18.92103941 61.13451354 18.95347279 62.89925117 19.00210762 64.66347122 C19.36946257 78.54356778 19.36946257 78.54356778 16.10128784 82.43377686 C13.69873047 84.01342773 13.69873047 84.01342773 11.30577087 85.07675171 C8.72900498 86.2613398 7.53031388 87.58418844 5.80053711 89.80102539 C3.49080996 92.70250082 1.34649831 94.33877705 -1.94946289 96.11352539 C-3.27977539 97.19633789 -3.27977539 97.19633789 -4.63696289 98.30102539 C-6.94946289 100.11352539 -6.94946289 100.11352539 -8.94946289 100.11352539 C-9.27946289 101.10352539 -9.60946289 102.09352539 -9.94946289 103.11352539 C-13.7883988 107.06009502 -18.07999294 110.52661948 -22.94946289 113.11352539 C-22.94946289 112.45352539 -22.94946289 111.79352539 -22.94946289 111.11352539 C-21.95946289 110.61852539 -21.95946289 110.61852539 -20.94946289 110.11352539 C-20.26459564 108.7894487 -19.60076086 107.45443298 -18.94946289 106.11352539 C-17.96917673 104.76563192 -16.96975155 103.43139824 -15.94946289 102.11352539 C-15.28946289 101.12352539 -14.62946289 100.13352539 -13.94946289 99.11352539 C-14.60946289 97.79352539 -15.26946289 96.47352539 -15.94946289 95.11352539 C-16.44446289 96.10352539 -16.44446289 96.10352539 -16.94946289 97.11352539 C-17.27946289 94.80352539 -17.60946289 92.49352539 -17.94946289 90.11352539 C-15.96946289 89.61852539 -15.96946289 89.61852539 -13.94946289 89.11352539 C-13.94946289 88.12352539 -13.94946289 87.13352539 -13.94946289 86.11352539 C-14.93946289 85.78352539 -15.92946289 85.45352539 -16.94946289 85.11352539 C-15.62946289 83.79352539 -14.30946289 82.47352539 -12.94946289 81.11352539 C-13.58883789 80.98977539 -14.22821289 80.86602539 -14.88696289 80.73852539 C-15.56758789 80.53227539 -16.24821289 80.32602539 -16.94946289 80.11352539 C-17.27946289 79.45352539 -17.60946289 78.79352539 -17.94946289 78.11352539 C-15.96946289 77.12352539 -15.96946289 77.12352539 -13.94946289 76.11352539 C-13.94946289 74.79352539 -13.94946289 73.47352539 -13.94946289 72.11352539 C-14.60946289 71.78352539 -15.26946289 71.45352539 -15.94946289 71.11352539 C-15.61946289 69.79352539 -15.28946289 68.47352539 -14.94946289 67.11352539 C-14.28946289 67.11352539 -13.62946289 67.11352539 -12.94946289 67.11352539 C-12.94946289 66.12352539 -12.94946289 65.13352539 -12.94946289 64.11352539 C-13.44446289 65.10352539 -13.44446289 65.10352539 -13.94946289 66.11352539 C-15.28279622 65.44685872 -16.61612956 64.78019206 -17.94946289 64.11352539 C-17.64008789 63.53602539 -17.33071289 62.95852539 -17.01196289 62.36352539 C-15.30207405 58.74258433 -14.65723544 56.99020774 -15.94946289 53.11352539 C-15.59883789 52.28852539 -15.24821289 51.46352539 -14.88696289 50.61352539 C-14.57758789 49.78852539 -14.26821289 48.96352539 -13.94946289 48.11352539 C-14.60946289 47.12352539 -15.26946289 46.13352539 -15.94946289 45.11352539 C-15.32446289 41.55102539 -15.32446289 41.55102539 -13.94946289 38.11352539 C-11.82446289 36.67602539 -11.82446289 36.67602539 -9.94946289 36.11352539 C-9.94946289 34.79352539 -9.94946289 33.47352539 -9.94946289 32.11352539 C-10.93946289 32.11352539 -11.92946289 32.11352539 -12.94946289 32.11352539 C-12.94946289 29.11352539 -12.94946289 29.11352539 -10.94946289 27.11352539 C-10.28946289 26.78352539 -9.62946289 26.45352539 -8.94946289 26.11352539 C-8.61946289 27.76352539 -8.28946289 29.41352539 -7.94946289 31.11352539 C-7.28946289 31.11352539 -6.62946289 31.11352539 -5.94946289 31.11352539 C-5.94946289 30.45352539 -5.94946289 29.79352539 -5.94946289 29.11352539 C-6.60946289 28.78352539 -7.26946289 28.45352539 -7.94946289 28.11352539 C-7.78446289 27.35040039 -7.61946289 26.58727539 -7.44946289 25.80102539 C-6.85800893 23.07756303 -6.85800893 23.07756303 -6.94946289 20.11352539 C-8.26946289 20.44352539 -9.58946289 20.77352539 -10.94946289 21.11352539 C-10.61946289 19.79352539 -10.28946289 18.47352539 -9.94946289 17.11352539 C-8.95946289 17.11352539 -7.96946289 17.11352539 -6.94946289 17.11352539 C-6.61946289 16.12352539 -6.28946289 15.13352539 -5.94946289 14.11352539 C-5.28946289 14.11352539 -4.62946289 14.11352539 -3.94946289 14.11352539 C-3.94946289 13.12352539 -3.94946289 12.13352539 -3.94946289 11.11352539 C-4.93946289 10.78352539 -5.92946289 10.45352539 -6.94946289 10.11352539 C-6.61946289 9.78352539 -6.28946289 9.45352539 -5.94946289 9.11352539 C-6.60946289 8.45352539 -7.26946289 7.79352539 -7.94946289 7.11352539 C-7.57446289 4.48852539 -7.57446289 4.48852539 -6.94946289 2.11352539 C-6.31008789 1.96915039 -5.67071289 1.82477539 -5.01196289 1.67602539 C-2.7574669 1.06116285 -2.30756555 0.13437921 0 0 Z " fill="#DF8D36" transform="translate(411.949462890625,86.886474609375)"/>
<path d="M0 0 C0.495 1.98 0.495 1.98 1 4 C2.65 4.33 4.3 4.66 6 5 C6.86188669 8.44754678 7.02523094 10.61673788 6 14 C5.00081159 19.09312544 5.00081159 19.09312544 6 24 C5 27 5 27 3 28 C3 28.99 3 29.98 3 31 C2.34 31.99 1.68 32.98 1 34 C2.32 34 3.64 34 5 34 C5.495 33.01 5.495 33.01 6 32 C6 32.66 6 33.32 6 34 C6.66 34 7.32 34 8 34 C8 34.99 8 35.98 8 37 C8.66 37.33 9.32 37.66 10 38 C9.505 38.99 9.505 38.99 9 40 C8.34 40 7.68 40 7 40 C7.05563651 41.83468832 7.05563651 41.83468832 8 44 C9.010625 44.825 10.02125 45.65 11.0625 46.5 C12.031875 47.325 13.00125 48.15 14 49 C14 50.32 14 51.64 14 53 C13.34 53 12.68 53 12 53 C11.95875 53.721875 11.9175 54.44375 11.875 55.1875 C10.59267639 59.30925447 8.51889287 60.53677499 5 63 C4.01 63 3.02 63 2 63 C1.67 63.99 1.34 64.98 1 66 C-0.73226275 67.60812665 -2.5345009 69.14197316 -4.375 70.625 C-5.35210937 71.42164063 -6.32921875 72.21828125 -7.3359375 73.0390625 C-10 75 -10 75 -13 76 C-13 53.23 -13 30.46 -13 7 C-35.44 7 -57.88 7 -81 7 C-81 6.67 -81 6.34 -81 6 C-80.14444519 5.99635437 -79.28889038 5.99270874 -78.40740967 5.98895264 C-70.34397627 5.95108358 -62.28094779 5.8942435 -54.21780014 5.81609726 C-50.07243009 5.77659032 -45.92727348 5.74441785 -41.78173828 5.72900391 C-37.78089877 5.71385815 -33.78064591 5.67945067 -29.78006744 5.63169098 C-28.2539098 5.6168555 -26.72766842 5.60895774 -25.2014389 5.60811615 C-23.06301864 5.60575105 -20.92622574 5.57871322 -18.78808594 5.54589844 C-17.5711908 5.53701599 -16.35429565 5.52813354 -15.1005249 5.51898193 C-11.45553616 4.90886482 -10.27518416 3.83849427 -8 1 C-7.01 1.99 -7.01 1.99 -6 3 C-4.02 2.01 -2.04 1.02 0 0 Z M8 48 C8.66 48.66 9.32 49.32 10 50 C10 49.34 10 48.68 10 48 C9.34 48 8.68 48 8 48 Z " fill="#E4B540" transform="translate(377,143)"/>
<path d="M0 0 C0.20869591 10.32668783 0.36852619 20.65287277 0.46630955 30.98124123 C0.51324651 35.77747798 0.57688387 40.5722704 0.67895508 45.36767578 C0.77687924 49.99731965 0.83058393 54.62557634 0.85389519 59.25617599 C0.8705023 61.02098815 0.90293568 62.78572578 0.95157051 64.54994583 C1.31892546 78.43004239 1.31892546 78.43004239 -1.94924927 82.32025146 C-4.35180664 83.89990234 -4.35180664 83.89990234 -6.74476624 84.96322632 C-9.32129089 86.14770351 -10.52003226 87.47122523 -12.25 89.6875 C-14.54759632 92.55632192 -16.57985851 94.4699367 -20 96 C-21.32 96 -22.64 96 -24 96 C-23.02065619 93.06196857 -21.95168368 91.35828444 -20 89 C-19.67 89 -19.34 89 -19 89 C-18.67 88.01 -18.34 87.02 -18 86 C-17.34 86.99 -16.68 87.98 -16 89 C-16 87.02 -16 85.04 -16 83 C-17.98 83.495 -17.98 83.495 -20 84 C-20.66 82.68 -21.32 81.36 -22 80 C-22.66 81.32 -23.32 82.64 -24 84 C-24.33 83.01 -24.66 82.02 -25 81 C-25.66 81 -26.32 81 -27 81 C-26.34 79.35 -25.68 77.7 -25 76 C-22.69 76.33 -20.38 76.66 -18 77 C-18 76.34 -18 75.68 -18 75 C-16.35 75 -14.7 75 -13 75 C-11.98888907 71.95086772 -11.98888907 71.95086772 -13 69 C-12.34 69 -11.68 69 -11 69 C-11 68.34 -11 67.68 -11 67 C-11.66 67 -12.32 67 -13 67 C-13.495 64.525 -13.495 64.525 -14 62 C-14.66 62 -15.32 62 -16 62 C-15.67 61.34 -15.34 60.68 -15 60 C-15 58.68 -15 57.36 -15 56 C-15.33 55.67 -15.66 55.34 -16 55 C-16.33 55.66 -16.66 56.32 -17 57 C-17.66 57 -18.32 57 -19 57 C-19 56.34 -19 55.68 -19 55 C-19.66 54.67 -20.32 54.34 -21 54 C-20.34 53.01 -19.68 52.02 -19 51 C-18.34 51 -17.68 51 -17 51 C-17 49.68 -17 48.36 -17 47 C-15.515 46.505 -15.515 46.505 -14 46 C-14.66 44.68 -15.32 43.36 -16 42 C-15.01 41.505 -15.01 41.505 -14 41 C-14 41.66 -14 42.32 -14 43 C-12.68 43.33 -11.36 43.66 -10 44 C-9.67 42.68 -9.34 41.36 -9 40 C-10.32 40.66 -11.64 41.32 -13 42 C-13.12375 41.4225 -13.2475 40.845 -13.375 40.25 C-14.00648824 37.97664233 -14.88858191 36.0746471 -16 34 C-15.01 34 -14.02 34 -13 34 C-13.66 33.67 -14.32 33.34 -15 33 C-14.67 31.35 -14.34 29.7 -14 28 C-12.35 28 -10.7 28 -9 28 C-9 28.99 -9 29.98 -9 31 C-7.68 30.34 -6.36 29.68 -5 29 C-5.66 28.67 -6.32 28.34 -7 28 C-7.33 28.66 -7.66 29.32 -8 30 C-8.495 27.525 -8.495 27.525 -9 25 C-9.33 25.66 -9.66 26.32 -10 27 C-10.99 27 -11.98 27 -13 27 C-13.33 26.01 -13.66 25.02 -14 24 C-13.34 24 -12.68 24 -12 24 C-11.67 22.68 -11.34 21.36 -11 20 C-10.01 20 -9.02 20 -8 20 C-8 18.68 -8 17.36 -8 16 C-8.99 16 -9.98 16 -11 16 C-10.773125 15.443125 -10.54625 14.88625 -10.3125 14.3125 C-9.87763215 11.09447789 -11.30982657 9.67610793 -13 7 C-12.67 6.34 -12.34 5.68 -12 5 C-11.01 5 -10.02 5 -9 5 C-9.33 3.68 -9.66 2.36 -10 1 C-6.58505832 0.2194419 -3.49609808 -0.04700636 0 0 Z " fill="#D05328" transform="translate(430,87)"/>
<path d="M0 0 C5.28 0 10.56 0 16 0 C15.01 1.485 15.01 1.485 14 3 C13.01 2.67 12.02 2.34 11 2 C10.74930087 4.37429296 10.74930087 4.37429296 11 7 C11.9793879 8.02019573 12.97895449 9.02149805 14 10 C14 11.32 14 12.64 14 14 C13.34 14 12.68 14 12 14 C12.33 14.99 12.66 15.98 13 17 C12.01 17 11.02 17 10 17 C9.34 17.33 8.68 17.66 8 18 C8 18.66 8 19.32 8 20 C8.99 19.67 9.98 19.34 11 19 C11.66 19.99 12.32 20.98 13 22 C12.34 22.66 11.68 23.32 11 24 C10.3574765 26.06874034 10.3574765 26.06874034 10 28 C10.99 28.33 11.98 28.66 13 29 C12.02149805 30.02104551 11.02019573 31.0206121 10 32 C9.67 32 9.34 32 9 32 C9 30.02 9 28.04 9 26 C8.34 26.99 7.68 27.98 7 29 C6.34 29 5.68 29 5 29 C5 29.99 5 30.98 5 32 C5.99 32 6.98 32 8 32 C8.625 33.875 8.625 33.875 9 36 C8.34 36.66 7.68 37.32 7 38 C6.01 38 5.02 38 4 38 C4 38.928125 4 39.85625 4 40.8125 C4 42.875 4 44.9375 4 47 C4.33 47.66 4.66 48.32 5 49 C4.33333333 51 3.66666667 53 3 55 C3.33 55.66 3.66 56.32 4 57 C3.22265625 58.7265625 3.22265625 58.7265625 2.0625 60.625 C1.381875 61.73875 0.70125 62.8525 0 64 C1.485 63.505 1.485 63.505 3 63 C3.33 63.99 3.66 64.98 4 66 C4.495 64.515 4.495 64.515 5 63 C5.495 63.99 5.495 63.99 6 65 C5.525625 65.433125 5.05125 65.86625 4.5625 66.3125 C2.76313043 68.02309613 2.76313043 68.02309613 2 71 C3.485 71.495 3.485 71.495 5 72 C4.25 76.75 4.25 76.75 2 79 C3.485 79.99 3.485 79.99 5 81 C4.67 81.99 4.34 82.98 4 84 C3.34 84 2.68 84 2 84 C2.66 84.66 3.32 85.32 4 86 C4 86.99 4 87.98 4 89 C3.34 89 2.68 89 2 89 C0.98888907 92.04913228 0.98888907 92.04913228 2 95 C2.66 95.33 3.32 95.66 4 96 C4.765625 97.84375 4.765625 97.84375 5 100 C4.109375 101.78125 4.109375 101.78125 2.75 103.5 C2.28464844 104.09941406 1.81929688 104.69882813 1.33984375 105.31640625 C0.89769531 105.87199219 0.45554687 106.42757812 0 107 C-0.556875 107.804375 -1.11375 108.60875 -1.6875 109.4375 C-2.3371875 110.2109375 -2.3371875 110.2109375 -3 111 C-3.66 111 -4.32 111 -5 111 C-5 110.34 -5 109.68 -5 109 C-4.34 109 -3.68 109 -3 109 C-3 107.68 -3 106.36 -3 105 C-3.598125 104.731875 -4.19625 104.46375 -4.8125 104.1875 C-7.04237457 102.97699666 -8.45490692 102.008621 -10 100 C-10 98.68 -10 97.36 -10 96 C-9.34 96 -8.68 96 -8 96 C-8.495 93.03 -8.495 93.03 -9 90 C-11.31 90 -13.62 90 -16 90 C-15.67 89.401875 -15.34 88.80375 -15 88.1875 C-13.79212012 85.94613529 -13.79212012 85.94613529 -14 83 C-12.02 82.01 -12.02 82.01 -10 81 C-10 81.99 -10 82.98 -10 84 C-9.34 84 -8.68 84 -8 84 C-8 83.34 -8 82.68 -8 82 C-5.525 81.505 -5.525 81.505 -3 81 C-3 79.68 -3 78.36 -3 77 C-3.66 76.67 -4.32 76.34 -5 76 C-4.01 76 -3.02 76 -2 76 C-2 75.34 -2 74.68 -2 74 C-2.66 73.67 -3.32 73.34 -4 73 C-3.79375 72.21625 -3.5875 71.4325 -3.375 70.625 C-3.25125 69.75875 -3.1275 68.8925 -3 68 C-3.66 67.34 -4.32 66.68 -5 66 C-4.69728039 64.65938457 -4.36162029 63.32594105 -4 62 C-4.495 60.515 -4.495 60.515 -5 59 C-4.01 58.505 -4.01 58.505 -3 58 C-3.99 58 -4.98 58 -6 58 C-6.33 56.02 -6.66 54.04 -7 52 C-6.01 52 -5.02 52 -4 52 C-3.34 49.36 -2.68 46.72 -2 44 C-3.32 44.66 -4.64 45.32 -6 46 C-5.40840281 41.16862293 -4.56944575 36.61601692 -3 32 C-2.34 31.67 -1.68 31.34 -1 31 C-1.20625 30.38125 -1.4125 29.7625 -1.625 29.125 C-1.74875 28.42375 -1.8725 27.7225 -2 27 C-1.34 26.34 -0.68 25.68 0 25 C1.22527948 23.04978917 1.22527948 23.04978917 2 21 C1.67 20.34 1.34 19.68 1 19 C-0.65 19.33 -2.3 19.66 -4 20 C-3 17 -3 17 -1 15 C0.01241685 13.67607028 1.01439389 12.34400833 2 11 C1.01 10.34 0.02 9.68 -1 9 C0 7 0 7 2 5 C2 4.01 2 3.02 2 2 C1.34 1.34 0.68 0.68 0 0 Z M-9 104 C-8.34 104 -7.68 104 -7 104 C-7.33 104.66 -7.66 105.32 -8 106 C-8.33 105.34 -8.66 104.68 -9 104 Z " fill="#E29E3A" transform="translate(394,87)"/>
<path d="M0 0 C1.39456452 0.00667256 2.78911118 0.01863093 4.18359375 0.03515625 C4.89451172 0.03966797 5.60542969 0.04417969 6.33789062 0.04882812 C8.09899388 0.06064761 9.86005411 0.07858362 11.62109375 0.09765625 C9.64109375 1.08765625 9.64109375 1.08765625 7.62109375 2.09765625 C7.62109375 3.08765625 7.62109375 4.07765625 7.62109375 5.09765625 C8.94109375 5.42765625 10.26109375 5.75765625 11.62109375 6.09765625 C10.48671875 6.07703125 9.35234375 6.05640625 8.18359375 6.03515625 C4.80533701 5.68188148 4.80533701 5.68188148 3.62109375 7.09765625 C4.61109375 7.42765625 5.60109375 7.75765625 6.62109375 8.09765625 C6.95109375 9.74765625 7.28109375 11.39765625 7.62109375 13.09765625 C6.96109375 13.09765625 6.30109375 13.09765625 5.62109375 13.09765625 C5.95109375 13.75765625 6.28109375 14.41765625 6.62109375 15.09765625 C7.61109375 15.42765625 8.60109375 15.75765625 9.62109375 16.09765625 C9.62109375 17.74765625 9.62109375 19.39765625 9.62109375 21.09765625 C8.30109375 20.76765625 6.98109375 20.43765625 5.62109375 20.09765625 C4.96109375 22.40765625 4.30109375 24.71765625 3.62109375 27.09765625 C4.94109375 26.43765625 6.26109375 25.77765625 7.62109375 25.09765625 C8.28109375 26.08765625 8.94109375 27.07765625 9.62109375 28.09765625 C10.61109375 28.42765625 11.60109375 28.75765625 12.62109375 29.09765625 C11.96109375 29.75765625 11.30109375 30.41765625 10.62109375 31.09765625 C9.63109375 31.09765625 8.64109375 31.09765625 7.62109375 31.09765625 C7.62109375 30.10765625 7.62109375 29.11765625 7.62109375 28.09765625 C5.97109375 28.09765625 4.32109375 28.09765625 2.62109375 28.09765625 C2.80671875 29.02578125 2.99234375 29.95390625 3.18359375 30.91015625 C3.62109375 34.09765625 3.62109375 34.09765625 2.62109375 37.09765625 C3.28109375 37.75765625 3.94109375 38.41765625 4.62109375 39.09765625 C5.11609375 39.59265625 5.11609375 39.59265625 5.62109375 40.09765625 C6.28109375 40.09765625 6.94109375 40.09765625 7.62109375 40.09765625 C7.95109375 41.41765625 8.28109375 42.73765625 8.62109375 44.09765625 C7.13609375 44.59265625 7.13609375 44.59265625 5.62109375 45.09765625 C5.62109375 44.43765625 5.62109375 43.77765625 5.62109375 43.09765625 C4.30109375 42.76765625 2.98109375 42.43765625 1.62109375 42.09765625 C2.28109375 43.41765625 2.94109375 44.73765625 3.62109375 46.09765625 C2.27698043 47.44176957 0.90074779 48.75444227 -0.50390625 50.03515625 C-2.71524265 52.00306164 -2.71524265 52.00306164 -2.37890625 55.09765625 C-2.37890625 55.75765625 -2.37890625 56.41765625 -2.37890625 57.09765625 C-1.71890625 57.09765625 -1.05890625 57.09765625 -0.37890625 57.09765625 C-0.04890625 56.10765625 0.28109375 55.11765625 0.62109375 54.09765625 C1.61109375 55.08765625 2.60109375 56.07765625 3.62109375 57.09765625 C2.96109375 58.41765625 2.30109375 59.73765625 1.62109375 61.09765625 C1.95109375 61.42765625 2.28109375 61.75765625 2.62109375 62.09765625 C2.98551608 63.75780241 3.32082258 65.42471689 3.62109375 67.09765625 C4.28109375 67.09765625 4.94109375 67.09765625 5.62109375 67.09765625 C5.29109375 70.06765625 4.96109375 73.03765625 4.62109375 76.09765625 C3.75484375 75.74703125 2.88859375 75.39640625 1.99609375 75.03515625 C-1.62715867 74.02869725 -3.76423845 74.23702106 -7.37890625 75.09765625 C-8.03890625 74.10765625 -8.69890625 73.11765625 -9.37890625 72.09765625 C-6.90390625 71.60265625 -6.90390625 71.60265625 -4.37890625 71.09765625 C-4.37890625 70.43765625 -4.37890625 69.77765625 -4.37890625 69.09765625 C-5.36890625 69.09765625 -6.35890625 69.09765625 -7.37890625 69.09765625 C-7.37890625 68.43765625 -7.37890625 67.77765625 -7.37890625 67.09765625 C-9.35890625 67.09765625 -11.33890625 67.09765625 -13.37890625 67.09765625 C-13.06953125 66.52015625 -12.76015625 65.94265625 -12.44140625 65.34765625 C-11.45307261 63.25471441 -10.86204495 61.3523035 -10.37890625 59.09765625 C-9.05890625 59.75765625 -7.73890625 60.41765625 -6.37890625 61.09765625 C-6.70890625 60.76765625 -7.03890625 60.43765625 -7.37890625 60.09765625 C-8.66710387 54.82775689 -8.66710387 54.82775689 -7.44140625 51.72265625 C-7.09078125 51.18640625 -6.74015625 50.65015625 -6.37890625 50.09765625 C-7.03890625 50.09765625 -7.69890625 50.09765625 -8.37890625 50.09765625 C-8.37890625 49.43765625 -8.37890625 48.77765625 -8.37890625 48.09765625 C-9.03890625 47.76765625 -9.69890625 47.43765625 -10.37890625 47.09765625 C-8.37890625 45.09765625 -8.37890625 45.09765625 -5.75390625 44.97265625 C-4.97015625 45.01390625 -4.18640625 45.05515625 -3.37890625 45.09765625 C-4.36890625 44.43765625 -5.35890625 43.77765625 -6.37890625 43.09765625 C-6.37890625 39.89370209 -5.63555603 38.00365886 -4.37890625 35.09765625 C-3.71890625 35.75765625 -3.05890625 36.41765625 -2.37890625 37.09765625 C-2.37890625 35.77765625 -2.37890625 34.45765625 -2.37890625 33.09765625 C-3.36890625 32.76765625 -4.35890625 32.43765625 -5.37890625 32.09765625 C-5.04890625 31.43765625 -4.71890625 30.77765625 -4.37890625 30.09765625 C-4.04890625 30.09765625 -3.71890625 30.09765625 -3.37890625 30.09765625 C-3.60578125 29.33453125 -3.83265625 28.57140625 -4.06640625 27.78515625 C-4.16953125 26.89828125 -4.27265625 26.01140625 -4.37890625 25.09765625 C-2.94140625 23.28515625 -2.94140625 23.28515625 -1.37890625 22.09765625 C-2.03890625 21.76765625 -2.69890625 21.43765625 -3.37890625 21.09765625 C-3.37890625 20.10765625 -3.37890625 19.11765625 -3.37890625 18.09765625 C-4.36890625 18.42765625 -5.35890625 18.75765625 -6.37890625 19.09765625 C-6.70890625 17.44765625 -7.03890625 15.79765625 -7.37890625 14.09765625 C-6.71890625 14.09765625 -6.05890625 14.09765625 -5.37890625 14.09765625 C-5.37890625 13.10765625 -5.37890625 12.11765625 -5.37890625 11.09765625 C-6.36890625 10.76765625 -7.35890625 10.43765625 -8.37890625 10.09765625 C-8.04890625 9.76765625 -7.71890625 9.43765625 -7.37890625 9.09765625 C-8.03890625 8.43765625 -8.69890625 7.77765625 -9.37890625 7.09765625 C-9.00390625 4.47265625 -9.00390625 4.47265625 -8.37890625 2.09765625 C-7.73953125 1.95328125 -7.10015625 1.80890625 -6.44140625 1.66015625 C-0.39614763 0.01144935 -0.39614763 0.01144935 0 0 Z " fill="#D97731" transform="translate(413.37890625,86.90234375)"/>
<path d="M0 0 C27.06 0 54.12 0 82 0 C82 0.66 82 1.32 82 2 C80.47862427 2.02187378 80.47862427 2.02187378 78.92651367 2.04418945 C75.16345971 2.10216253 71.40100479 2.17939459 67.63842773 2.26245117 C66.00994591 2.29570536 64.38134869 2.32373584 62.75268555 2.34643555 C60.41144639 2.37997357 58.07126514 2.43228585 55.73046875 2.48828125 C55.00224411 2.49467117 54.27401947 2.5010611 53.52372742 2.50764465 C49.5169674 2.60211387 49.5169674 2.60211387 46.0793457 4.46948242 C45.72316162 4.97455322 45.36697754 5.47962402 45 6 C44.67 6.33 44.34 6.66 44 7 C41.60695613 10.99837747 39.84479573 14.63293205 39.4375 19.3125 C39 23 39 23 37.5625 25 C36 26 36 26 34 26 C33.896875 26.78375 33.79375 27.5675 33.6875 28.375 C33 31 33 31 30 33 C27.5 31.8125 27.5 31.8125 25 30 C24.6875 27.3125 24.6875 27.3125 25 25 C25.66 25 26.32 25 27 25 C26.34 23.35 25.68 21.7 25 20 C26.98 19.67 28.96 19.34 31 19 C31 18.01 31 17.02 31 16 C29.35 15.34 27.7 14.68 26 14 C26.66 10.37 27.32 6.74 28 3 C14.14 2.505 14.14 2.505 0 2 C0 1.34 0 0.68 0 0 Z " fill="#DCAD4A" transform="translate(348,85)"/>
<path d="M0 0 C0.99 0.495 0.99 0.495 2 1 C-1.2254474 5.42730863 -4.36440376 7.72363082 -9.82128906 8.64568901 C-14.753669 8.95712644 -19.6862555 8.86639959 -24.625 8.79467773 C-26.52763292 8.79270169 -28.43027118 8.79381453 -30.332901 8.79777527 C-35.48356016 8.79977978 -40.63307306 8.7586897 -45.78346634 8.70975757 C-51.17125858 8.66593237 -56.5590785 8.66188124 -61.94702148 8.65357971 C-72.14326488 8.63184226 -82.3389815 8.57442504 -92.53499317 8.50413328 C-104.14552411 8.42583111 -115.7560805 8.38738849 -127.36680984 8.35226524 C-151.24483169 8.27914105 -175.1223863 8.15605403 -199 8 C-193.61607143 2.47321429 -193.61607143 2.47321429 -190 1 C-190.99 2.32 -191.98 3.64 -193 5 C-168.72191271 5.11677609 -144.44386748 5.20496023 -120.16555595 5.25906086 C-108.89282725 5.28484786 -97.62027299 5.32000806 -86.34765625 5.37719727 C-76.52300085 5.42701681 -66.69847179 5.4592874 -56.87369359 5.47044247 C-51.67097595 5.47696364 -46.46861976 5.49230083 -41.26601791 5.52865028 C-36.36911598 5.5625867 -31.47272438 5.57305765 -26.57571602 5.56553841 C-24.7785941 5.566914 -22.98145512 5.57686055 -21.18443489 5.59602737 C-18.72925399 5.62092966 -16.27599625 5.61491684 -13.82077026 5.60127258 C-12.75557484 5.62311889 -12.75557484 5.62311889 -11.66886032 5.64540654 C-6.09363158 5.56173505 -3.81870978 3.74452936 0 0 Z " fill="#90908B" transform="translate(331,398)"/>
<path d="M0 0 C1.65 0 3.3 0 5 0 C5 0.99 5 1.98 5 3 C6.98 2.67 8.96 2.34 11 2 C10.34 2.66 9.68 3.32 9 4 C9.66 4 10.32 4 11 4 C11.66 3.34 12.32 2.68 13 2 C13 3.65 13 5.3 13 7 C11.35 7 9.7 7 8 7 C8.33 7.99 8.66 8.98 9 10 C9 10.99 9 11.98 9 13 C8.34 13 7.68 13 7 13 C7.27617533 14.94074861 7.27617533 14.94074861 8 17 C8.99 17.66 9.98 18.32 11 19 C10.67 19.66 10.34 20.32 10 21 C9.7834375 22.0209375 9.7834375 22.0209375 9.5625 23.0625 C9.376875 23.701875 9.19125 24.34125 9 25 C8.34 25.33 7.68 25.66 7 26 C6.401875 25.67 5.80375 25.34 5.1875 25 C2.40357182 23.72734712 0.89081739 24.19699517 -2 25 C-2.33 26.32 -2.66 27.64 -3 29 C-3.66 29 -4.32 29 -5 29 C-5 28.34 -5 27.68 -5 27 C-5.66 26.67 -6.32 26.34 -7 26 C-6.01 24.515 -6.01 24.515 -5 23 C-4.34 23 -3.68 23 -3 23 C-3 21.68 -3 20.36 -3 19 C-2.01 18.67 -1.02 18.34 0 18 C-0.66 16.68 -1.32 15.36 -2 14 C-1.34 13.67 -0.68 13.34 0 13 C0 13.66 0 14.32 0 15 C1.32 15.33 2.64 15.66 4 16 C4.33 14.68 4.66 13.36 5 12 C3.02 12.99 3.02 12.99 1 14 C0.87625 13.4225 0.7525 12.845 0.625 12.25 C-0.00648824 9.97664233 -0.88858191 8.0746471 -2 6 C-1.01 6 -0.02 6 1 6 C0.34 5.67 -0.32 5.34 -1 5 C-0.67 3.35 -0.34 1.7 0 0 Z " fill="#D5642D" transform="translate(416,115)"/>
<path d="M0 0 C2 2 2 2 3 4 C3.99 4 4.98 4 6 4 C6.625 6.875 6.625 6.875 7 10 C6.34 10.66 5.68 11.32 5 12 C4.67 11.34 4.34 10.68 4 10 C2.03747385 11.96252615 1.19101732 13.53856421 0 16 C-0.33 16.33 -0.66 16.66 -1 17 C-1.68268138 18.32520503 -2.3507041 19.65812182 -3 21 C-3.66 21 -4.32 21 -5 21 C-5.33 21.99 -5.66 22.98 -6 24 C-9.83893591 27.94656963 -14.13053005 31.41309409 -19 34 C-19 33.34 -19 32.68 -19 32 C-18.34 31.67 -17.68 31.34 -17 31 C-16.31513275 29.67592331 -15.65129797 28.34090759 -15 27 C-14.01971384 25.65210653 -13.02028865 24.31787285 -12 23 C-11.34 22.01 -10.68 21.02 -10 20 C-10.66 18.68 -11.32 17.36 -12 16 C-12.33 16.66 -12.66 17.32 -13 18 C-13.33 15.69 -13.66 13.38 -14 11 C-13.38125 10.95875 -12.7625 10.9175 -12.125 10.875 C-11.42375 10.58625 -10.7225 10.2975 -10 10 C-8.6954344 7.00384054 -8.6954344 7.00384054 -8 4 C-7.67 4 -7.34 4 -7 4 C-6.91113816 7.19902639 -7.08941469 9.92677456 -8 13 C-4.83884224 11.63016497 -4.0072908 11.0109362 -2 8 C-2.33 7.34 -2.66 6.68 -3 6 C-2.34 6 -1.68 6 -1 6 C-1.33 4.35 -1.66 2.7 -2 1 C-1.34 0.67 -0.68 0.34 0 0 Z " fill="#D98333" transform="translate(408,166)"/>
<path d="M0 0 C0.33 0 0.66 0 1 0 C1 61.71 1 123.42 1 187 C4.62257087 184.1019433 7.79004518 181.30166782 11 178 C9.43810398 181.49995547 7.33666309 184.27172857 4.9375 187.25 C4.22464844 188.14203125 3.51179688 189.0340625 2.77734375 189.953125 C1.89755859 190.96632813 1.89755859 190.96632813 1 192 C0.67 192 0.34 192 0 192 C0 128.64 0 65.28 0 0 Z " fill="#E1E0DA" transform="translate(107,191)"/>
<path d="M0 0 C0.598125 0.165 1.19625 0.33 1.8125 0.5 C4.11344336 1.1114124 4.11344336 1.1114124 7 1 C6.62875 1.5775 6.2575 2.155 5.875 2.75 C5.441875 3.86375 5.441875 3.86375 5 5 C5.89681416 7.12730285 5.89681416 7.12730285 7 9 C6.52949219 9.38671875 6.05898438 9.7734375 5.57421875 10.171875 C1.68318263 13.39642085 1.68318263 13.39642085 -1.625 17.1875 C-3.44031954 19.58042121 -5.3138418 20.68967892 -8 22 C-9.32 22 -10.64 22 -12 22 C-11.02065619 19.06196857 -9.95168368 17.35828444 -8 15 C-7.67 15 -7.34 15 -7 15 C-6.67 14.01 -6.34 13.02 -6 12 C-5.01 13.485 -5.01 13.485 -4 15 C-4 13.02 -4 11.04 -4 9 C-5.32 9.33 -6.64 9.66 -8 10 C-8.66 8.68 -9.32 7.36 -10 6 C-10.66 7.32 -11.32 8.64 -12 10 C-12.33 9.01 -12.66 8.02 -13 7 C-13.66 7 -14.32 7 -15 7 C-14.34 5.35 -13.68 3.7 -13 2 C-10.69 2.33 -8.38 2.66 -6 3 C-6 2.34 -6 1.68 -6 1 C-3.03 1.495 -3.03 1.495 0 2 C0 1.34 0 0.68 0 0 Z " fill="#D46C2F" transform="translate(418,161)"/>
<path d="M0 0 C0.1875 3.375 0.1875 3.375 0 7 C-0.99 7.66 -1.98 8.32 -3 9 C-2.01 9.33 -1.02 9.66 0 10 C-1.65 10.33 -3.3 10.66 -5 11 C-4.16666667 13.16666667 -4.16666667 13.16666667 -2 14 C-2.99 14.33 -3.98 14.66 -5 15 C-3.35 15.33 -1.7 15.66 0 16 C-0.33 16.66 -0.66 17.32 -1 18 C-1.66 17.67 -2.32 17.34 -3 17 C-3 17.99 -3 18.98 -3 20 C-2.01 20 -1.02 20 0 20 C0.125 26.75 0.125 26.75 -1 29 C-2.65 28.67 -4.3 28.34 -6 28 C-6.33 28.66 -6.66 29.32 -7 30 C-7.33 28.35 -7.66 26.7 -8 25 C-8.33 25.66 -8.66 26.32 -9 27 C-9.99 27 -10.98 27 -12 27 C-12.33 26.01 -12.66 25.02 -13 24 C-12.34 24 -11.68 24 -11 24 C-10.67 22.68 -10.34 21.36 -10 20 C-9.01 20 -8.02 20 -7 20 C-7 18.68 -7 17.36 -7 16 C-7.99 16 -8.98 16 -10 16 C-9.6596875 15.1646875 -9.6596875 15.1646875 -9.3125 14.3125 C-8.87763215 11.09447789 -10.30982657 9.67610793 -12 7 C-11.67 6.34 -11.34 5.68 -11 5 C-10.01 5 -9.02 5 -8 5 C-8.33 3.68 -8.66 2.36 -9 1 C-5.846632 0.29925156 -3.27275026 0 0 0 Z " fill="#D5622C" transform="translate(429,87)"/>
<path d="M0 0 C0.99 0 1.98 0 3 0 C3.66 0.99 4.32 1.98 5 3 C5.66 2.67 6.32 2.34 7 2 C7.66 2.66 8.32 3.32 9 4 C8.01 5.32 7.02 6.64 6 8 C6.66 8 7.32 8 8 8 C8.33 7.01 8.66 6.02 9 5 C9.99 5.33 10.98 5.66 12 6 C11.54625 6.598125 11.0925 7.19625 10.625 7.8125 C9.36704087 9.50590652 8.17015276 11.24477086 7 13 C6.01 13.33 5.02 13.66 4 14 C3.73067479 18.65052872 3.73067479 18.65052872 5 23 C4.01 23.33 3.02 23.66 2 24 C1.67 23.01 1.34 22.02 1 21 C-1.92879371 21.62759865 -4.36095629 22.58622659 -7 24 C-6.01 22.02 -5.02 20.04 -4 18 C-3.34 18 -2.68 18 -2 18 C-0.89803432 15.13488924 -0.98597056 14.04121148 -2 11.0625 C-3.08367796 7.74373626 -3.06181674 6.27393494 -2 3 C-1.34 2.01 -0.68 1.02 0 0 Z " fill="#E7B741" transform="translate(374,114)"/>
<path d="M0 0 C2.52554365 0.02146354 4.99602213 0.13958887 7.5078125 0.3984375 C5.5278125 1.3884375 5.5278125 1.3884375 3.5078125 2.3984375 C3.5078125 3.3884375 3.5078125 4.3784375 3.5078125 5.3984375 C4.8278125 5.7284375 6.1478125 6.0584375 7.5078125 6.3984375 C6.3734375 6.3778125 5.2390625 6.3571875 4.0703125 6.3359375 C0.69205576 5.98266273 0.69205576 5.98266273 -0.4921875 7.3984375 C0.4978125 7.7284375 1.4878125 8.0584375 2.5078125 8.3984375 C2.8378125 10.0484375 3.1678125 11.6984375 3.5078125 13.3984375 C2.8478125 13.3984375 2.1878125 13.3984375 1.5078125 13.3984375 C1.8378125 14.0584375 2.1678125 14.7184375 2.5078125 15.3984375 C3.4978125 15.7284375 4.4878125 16.0584375 5.5078125 16.3984375 C5.5078125 18.0484375 5.5078125 19.6984375 5.5078125 21.3984375 C4.1878125 21.0684375 2.8678125 20.7384375 1.5078125 20.3984375 C1.5078125 21.0584375 1.5078125 21.7184375 1.5078125 22.3984375 C-0.1421875 22.0684375 -1.7921875 21.7384375 -3.4921875 21.3984375 C-3.8221875 20.4084375 -4.1521875 19.4184375 -4.4921875 18.3984375 C-5.1521875 17.7384375 -5.8121875 17.0784375 -6.4921875 16.3984375 C-5.1721875 16.0684375 -3.8521875 15.7384375 -2.4921875 15.3984375 C-2.1621875 13.0884375 -1.8321875 10.7784375 -1.4921875 8.3984375 C-3.9671875 7.4084375 -3.9671875 7.4084375 -6.4921875 6.3984375 C-3.84102471 0.61408232 -3.84102471 0.61408232 0 0 Z " fill="#D87030" transform="translate(417.4921875,86.6015625)"/>
<path d="M0 0 C0.33 0 0.66 0 1 0 C1 26.4 1 52.8 1 80 C0.67 80 0.34 80 0 80 C0 71.09 0 62.18 0 53 C-0.66 52.67 -1.32 52.34 -2 52 C-1.34 52 -0.68 52 0 52 C-0.33 45.4 -0.66 38.8 -1 32 C-1.66 32.66 -2.32 33.32 -3 34 C-3.66 33.34 -4.32 32.68 -5 32 C-4.34 31.01 -3.68 30.02 -3 29 C-2.34 29 -1.68 29 -1 29 C-0.505 24.545 -0.505 24.545 0 20 C-0.99 20 -1.98 20 -3 20 C-3 19.01 -3 18.02 -3 17 C-3.66 17 -4.32 17 -5 17 C-5 15 -5 15 -4 14 C-4.66 13.67 -5.32 13.34 -6 13 C-5.505 12.46375 -5.01 11.9275 -4.5 11.375 C-2.62510456 8.40641555 -2.76498575 6.44687573 -3 3 C-2.34 4.32 -1.68 5.64 -1 7 C-0.67 4.69 -0.34 2.38 0 0 Z " fill="#BF4D25" transform="translate(429,87)"/>
<path d="M0 0 C1.98 0 3.96 0 6 0 C6 0.66 6 1.32 6 2 C8.31 2 10.62 2 13 2 C12 5 12 5 10 7 C9.67 6.67 9.34 6.34 9 6 C8.67 6.99 8.34 7.98 8 9 C9.32 8.67 10.64 8.34 12 8 C12 8.66 12 9.32 12 10 C11.34 10 10.68 10 10 10 C9.67 10.99 9.34 11.98 9 13 C8.67 12.67 8.34 12.34 8 12 C7.67 12.99 7.34 13.98 7 15 C7.99 14.67 8.98 14.34 10 14 C10.33 14.99 10.66 15.98 11 17 C5.25 19 5.25 19 3 19 C2.67 17.68 2.34 16.36 2 15 C2.66 15 3.32 15 4 15 C4 14.34 4 13.68 4 13 C3.34 13 2.68 13 2 13 C1.67 11.35 1.34 9.7 1 8 C0.34 8 -0.32 8 -1 8 C-0.67 7.34 -0.34 6.68 0 6 C0 4.68 0 3.36 0 2 C0 1.34 0 0.68 0 0 Z " fill="#D6622D" transform="translate(415,141)"/>
<path d="M0 0 C0.33 0 0.66 0 1 0 C1.08886184 3.19902639 0.91058531 5.92677456 0 9 C0.99 9.33 1.98 9.66 3 10 C3.14506831 14.50618431 3.20891947 18.46907861 0.328125 22.1171875 C-3.16295461 25.17516325 -6.89525181 27.81935253 -11 30 C-11 29.34 -11 28.68 -11 28 C-10.34 27.67 -9.68 27.34 -9 27 C-8.31513275 25.67592331 -7.65129797 24.34090759 -7 23 C-6.01971384 21.65210653 -5.02028865 20.31787285 -4 19 C-3.34 18.01 -2.68 17.02 -2 16 C-2.66 14.68 -3.32 13.36 -4 12 C-4.33 12.66 -4.66 13.32 -5 14 C-5.33 11.69 -5.66 9.38 -6 7 C-5.38125 6.95875 -4.7625 6.9175 -4.125 6.875 C-3.42375 6.58625 -2.7225 6.2975 -2 6 C-0.6954344 3.00384054 -0.6954344 3.00384054 0 0 Z " fill="#E09537" transform="translate(400,170)"/>
<path d="M0 0 C1.2065625 0.0309375 1.2065625 0.0309375 2.4375 0.0625 C0.9525 2.5375 0.9525 2.5375 -0.5625 5.0625 C0.7575 6.0525 2.0775 7.0425 3.4375 8.0625 C3.1075 9.3825 2.7775 10.7025 2.4375 12.0625 C1.1175 12.0625 -0.2025 12.0625 -1.5625 12.0625 C-1.8925 13.0525 -2.2225 14.0425 -2.5625 15.0625 C-3.2225 14.7325 -3.8825 14.4025 -4.5625 14.0625 C-4.5625 13.0725 -4.5625 12.0825 -4.5625 11.0625 C-5.5525 10.7325 -6.5425 10.4025 -7.5625 10.0625 C-7.2325 9.7325 -6.9025 9.4025 -6.5625 9.0625 C-7.2225 8.4025 -7.8825 7.7425 -8.5625 7.0625 C-8.1875 4.4375 -8.1875 4.4375 -7.5625 2.0625 C-6.923125 1.918125 -6.28375 1.77375 -5.625 1.625 C-2.92258807 0.88797856 -2.9576555 0.07213794 0 0 Z M-6.5625 14.0625 C-5.9025 14.0625 -5.2425 14.0625 -4.5625 14.0625 C-4.5625 14.7225 -4.5625 15.3825 -4.5625 16.0625 C-5.2225 16.0625 -5.8825 16.0625 -6.5625 16.0625 C-6.5625 15.4025 -6.5625 14.7425 -6.5625 14.0625 Z " fill="#DD8634" transform="translate(412.5625,86.9375)"/>
<path d="M0 0 C0.598125 0.165 1.19625 0.33 1.8125 0.5 C4.11344336 1.1114124 4.11344336 1.1114124 7 1 C6.62875 1.5775 6.2575 2.155 5.875 2.75 C4.70833333 5 4.70833333 5 5.875 7.25 C6.24625 7.8275 6.6175 8.405 7 9 C6.01 9.33 5.02 9.66 4 10 C3.01 9.01 2.02 8.02 1 7 C1.33 6.34 1.66 5.68 2 5 C1.05125 5.020625 0.1025 5.04125 -0.875 5.0625 C-4 5 -4 5 -6 4 C-6 3.01 -6 2.02 -6 1 C-3.03 1.495 -3.03 1.495 0 2 C0 1.34 0 0.68 0 0 Z " fill="#D6642D" transform="translate(418,161)"/>
<path d="M0 0 C0.66 0.99 1.32 1.98 2 3 C2.66 2.34 3.32 1.68 4 1 C4.66 1.66 5.32 2.32 6 3 C3.79015325 6.37292399 1.63053927 8.22900524 -2 10 C-3.32 10 -4.64 10 -6 10 C-5.02065619 7.06196857 -3.95168368 5.35828444 -2 3 C-1.67 3 -1.34 3 -1 3 C-0.67 2.01 -0.34 1.02 0 0 Z " fill="#C0692A" transform="translate(412,173)"/>
<path d="M0 0 C0.33 0 0.66 0 1 0 C1 5.61 1 11.22 1 17 C4.62257087 14.1019433 7.79004518 11.30166782 11 8 C9.43810398 11.49995547 7.33666309 14.27172857 4.9375 17.25 C4.22464844 18.14203125 3.51179688 19.0340625 2.77734375 19.953125 C2.19082031 20.62859375 1.60429688 21.3040625 1 22 C0.67 22 0.34 22 0 22 C0 14.74 0 7.48 0 0 Z " fill="#BDBCB7" transform="translate(107,361)"/>
<path d="M0 0 C1.60080151 4.00200378 0.29279692 7.04556236 -1 11 C-1.99 11 -2.98 11 -4 11 C-3.67 10.01 -3.34 9.02 -3 8 C-3.99 8 -4.98 8 -6 8 C-4.55746343 4.63408134 -2.66735273 2.48952921 0 0 Z M-3 6 C-2 8 -2 8 -2 8 Z " fill="#EDD349" transform="translate(332,105)"/>
<path d="M0 0 C0.33 1.32 0.66 2.64 1 4 C-0.65234375 6.359375 -0.65234375 6.359375 -2.9375 8.75 C-4.06478516 9.94882813 -4.06478516 9.94882813 -5.21484375 11.171875 C-5.80394531 11.77515625 -6.39304687 12.3784375 -7 13 C-7.99 12.67 -8.98 12.34 -10 12 C-6.7 8.04 -3.4 4.08 0 0 Z " fill="#D7C34F" transform="translate(313,126)"/>
<path d="M0 0 C0.33 0.66 0.66 1.32 1 2 C4.465 1.505 4.465 1.505 8 1 C5.6875 3.5 5.6875 3.5 3 6 C2.01 6 1.02 6 0 6 C-0.33 6.99 -0.66 7.98 -1 9 C-2.0326802 6.21176345 -2.04509293 5.1322726 -1.0625 2.25 C-0.711875 1.5075 -0.36125 0.765 0 0 Z " fill="#D6A039" transform="translate(379,200)"/>
<path d="M0 0 C1.32 0.33 2.64 0.66 4 1 C-4.261959 8.48291572 -4.261959 8.48291572 -9 11 C-9 10.34 -9 9.68 -9 9 C-8.34 8.67 -7.68 8.34 -7 8 C-6.71125 7.34 -6.4225 6.68 -6.125 6 C-5.75375 5.34 -5.3825 4.68 -5 4 C-3.67405895 3.63837971 -2.34061543 3.30271961 -1 3 C-0.67 2.01 -0.34 1.02 0 0 Z " fill="#A06D27" transform="translate(398,189)"/>
<path d="M0 0 C0.99 0 1.98 0 3 0 C3 2.97 3 5.94 3 9 C1.68 9 0.36 9 -1 9 C-1.33 8.01 -1.66 7.02 -2 6 C-1.34 5.67 -0.68 5.34 0 5 C-1.32 4.34 -2.64 3.68 -4 3 C-2.68 3 -1.36 3 0 3 C0 2.01 0 1.02 0 0 Z " fill="#CF4826" transform="translate(426,129)"/>
<path d="M0 0 C0 1.32 0 2.64 0 4 C-1.65 4 -3.3 4 -5 4 C-5 5.32 -5 6.64 -5 8 C-5.66 8 -6.32 8 -7 8 C-7 7.34 -7 6.68 -7 6 C-7.66 5.67 -8.32 5.34 -9 5 C-4.32258065 0 -4.32258065 0 0 0 Z " fill="#D77131" transform="translate(418,136)"/>
<path d="M0 0 C0.99 0.33 1.98 0.66 3 1 C1 3.66666667 -1 6.33333333 -3 9 C-4.32 8.67 -5.64 8.34 -7 8 C-4.69 5.36 -2.38 2.72 0 0 Z " fill="#DEC951" transform="translate(321,117)"/>
<path d="M0 0 C2.89932357 2.39509338 3.50168276 4.31245243 4 8 C1.69 8 -0.62 8 -3 8 C-2.5359375 7.13375 -2.5359375 7.13375 -2.0625 6.25 C-1.07416636 4.15705816 -0.4831387 2.25464725 0 0 Z " fill="#D98132" transform="translate(403,146)"/>
<path d="M0 0 C1.98 0.66 3.96 1.32 6 2 C6 2.66 6 3.32 6 4 C5.360625 4.103125 4.72125 4.20625 4.0625 4.3125 C3.381875 4.539375 2.70125 4.76625 2 5 C1.67 5.99 1.34 6.98 1 8 C0.67 7.01 0.34 6.02 0 5 C-0.66 5 -1.32 5 -2 5 C-1.34 3.35 -0.68 1.7 0 0 Z " fill="#D77A2F" transform="translate(405,163)"/>
<path d="M0 0 C0.99 0.33 1.98 0.66 3 1 C1.02 3.31 -0.96 5.62 -3 8 C-3.33 7.01 -3.66 6.02 -4 5 C-2.0625 2.3125 -2.0625 2.3125 0 0 Z " fill="#E1C851" transform="translate(338,97)"/>
<path d="M0 0 C1.37562854 1.28965176 2.70766393 2.62689293 4 4 C4 4.66 4 5.32 4 6 C3.01 6.33 2.02 6.66 1 7 C0.01 6.01 -0.98 5.02 -2 4 C-1.34 2.68 -0.68 1.36 0 0 Z " fill="#D15B2A" transform="translate(421,164)"/>
<path d="M0 0 C1.65 0 3.3 0 5 0 C5 0.99 5 1.98 5 3 C3.02 3.66 1.04 4.32 -1 5 C-0.67 3.35 -0.34 1.7 0 0 Z " fill="#D05F29" transform="translate(416,115)"/>
<path d="M0 0 C0.93065133 2.60582371 1.14917407 3.64198224 0.0625 6.25 C-0.4634375 7.11625 -0.4634375 7.11625 -1 8 C-1.99 7.67 -2.98 7.34 -4 7 C-3.49396008 4.83125748 -3.00016187 3.00032373 -2 1 C-1.34 0.67 -0.68 0.34 0 0 Z " fill="#E7BE42" transform="translate(363,129)"/>
<path d="M0 0 C1 3 1 3 0.0625 5.1875 C-0.4634375 6.0846875 -0.4634375 6.0846875 -1 7 C-1 6.01 -1 5.02 -1 4 C-2.32 4.33 -3.64 4.66 -5 5 C-4 2 -4 2 -1.9375 0.8125 C-1.298125 0.544375 -0.65875 0.27625 0 0 Z " fill="#E8C043" transform="translate(368,112)"/>
<path d="M0 0 C0 3.61537605 -0.89229241 5.11165997 -3 8 C-3.99 8 -4.98 8 -6 8 C-4.55746343 4.63408134 -2.66735273 2.48952921 0 0 Z " fill="#E6D156" transform="translate(332,105)"/>
<path d="M0 0 C0.33 0.99 0.66 1.98 1 3 C-0.65 4.65 -2.3 6.3 -4 8 C-4.33 7.34 -4.66 6.68 -5 6 C-3.35 4.02 -1.7 2.04 0 0 Z " fill="#E1C852" transform="translate(347,87)"/>
</svg>
